<?xml version="1.0"?>
<svg xmlns="http://www.w3.org/2000/svg" viewBox="0 0 64 64" width="512" height="512"><g id="_24_hour" data-name="24 hour"><rect x="29" y="32" width="2" height="2"/><rect x="33" y="32" width="2" height="2"/><path d="M50,2A12,12,0,1,0,62,14,12.01,12.01,0,0,0,50,2Zm0,22A10,10,0,1,1,60,14,10.016,10.016,0,0,1,50,24Z"/><path d="M46,15v1h3v2H45a1,1,0,0,1-1-1V14a1,1,0,0,1,1-1h2V12H44V10h4a1,1,0,0,1,1,1v3a1,1,0,0,1-1,1Z"/><path d="M56,10v8H54V15H52a1,1,0,0,1-1-1V10h2v3h1V10Z"/><path d="M49,34H44v2h6a1,1,0,0,0,1-1V28H49Z"/><path d="M13,27v8a1,1,0,0,0,1,1h6V34H15V27Z"/><path d="M11,15a4,4,0,1,0-4-4A4,4,0,0,0,11,15Zm0-6a2,2,0,1,1-2,2A2,2,0,0,1,11,9Z"/><path d="M25.24,13.03l-.67-.17.36-.59a1.014,1.014,0,0,0-.15-1.22L21.95,8.22a1.014,1.014,0,0,0-1.22-.15l-.59.36-.17-.67a.982.982,0,0,0-.94-.75,1,1,0,0,0-.25-.96L15.95,3.22a1.012,1.012,0,0,0-1.22-.15l-.59.36-.17-.67A1,1,0,0,0,13,2H9a1,1,0,0,0-.97.76l-.17.67-.59-.36a1.014,1.014,0,0,0-1.22.15L3.22,6.05a1,1,0,0,0-.15,1.22l.36.59-.67.17A1,1,0,0,0,2,9v4a1,1,0,0,0,.76.97l.67.17-.36.59a1,1,0,0,0,.15,1.22l2.83,2.83a1.012,1.012,0,0,0,1.22.15l.59-.36.17.67a.982.982,0,0,0,.94.75,1,1,0,0,0,.25.96l2.83,2.83a1.014,1.014,0,0,0,1.22.15l.59-.36.17.67A1,1,0,0,0,15,25h4a1,1,0,0,0,.97-.76l.17-.67.59.36a1.014,1.014,0,0,0,1.22-.15l2.83-2.83a1.014,1.014,0,0,0,.15-1.22l-.36-.59.67-.17A1,1,0,0,0,26,18V14A1,1,0,0,0,25.24,13.03ZM18.96,15.7c.01.1.04.2.04.3a2.006,2.006,0,0,1-2,2,1.967,1.967,0,0,1-.24-.03l2.02-2.02A1.138,1.138,0,0,0,18.96,15.7ZM9.48,16.78a1.007,1.007,0,0,0-.59-.68,1.019,1.019,0,0,0-.9.06l-1.08.65L5.19,15.09l.65-1.08a1.019,1.019,0,0,0,.06-.9,1.007,1.007,0,0,0-.68-.59L4,12.22V9.78l1.22-.3a1.007,1.007,0,0,0,.68-.59,1.019,1.019,0,0,0-.06-.9L5.19,6.91,6.91,5.19l1.08.64a.989.989,0,0,0,.9.07,1.007,1.007,0,0,0,.59-.68L9.78,4h2.44l.3,1.22a1.007,1.007,0,0,0,.59.68.989.989,0,0,0,.9-.07l1.08-.64,1.72,1.72-.65,1.08a1.019,1.019,0,0,0-.06.9,1.007,1.007,0,0,0,.68.59l1.22.3v2.44l-1.22.3a1.007,1.007,0,0,0-.68.59,1.019,1.019,0,0,0,.06.9l.65,1.08-1.72,1.72-1.08-.65a1.019,1.019,0,0,0-.9-.06,1.007,1.007,0,0,0-.59.68L12.22,18H9.78ZM24,17.22l-1.22.3a.984.984,0,0,0-.68.59,1,1,0,0,0,.06.89l.65,1.08-1.73,1.73L20,21.16a1,1,0,0,0-.89-.06.984.984,0,0,0-.59.68L18.22,23H15.78l-.3-1.22a.984.984,0,0,0-.59-.68,1,1,0,0,0-.89.06l-1.08.65-1.73-1.73.05-.08H13a1,1,0,0,0,.97-.76l.13-.5A3.931,3.931,0,0,0,17,20a4.006,4.006,0,0,0,2.95-6.71A.929.929,0,0,0,20,13V10.84l1.08-.65,1.73,1.73L22.16,13a1,1,0,0,0-.06.89.984.984,0,0,0,.68.59l1.22.3Z"/><path d="M61,32H57a.99.99,0,0,0-.86.49l-3,5a.992.992,0,0,0-.03.96L55,42.24V47h-.13a4,4,0,0,0-7.74,0h-7.8L36,44.5V41.74A7.007,7.007,0,0,0,38.92,37H40a2.006,2.006,0,0,0,2-2V34a2,2,0,0,0-1.62-1.96l1.33-1.33A1.033,1.033,0,0,0,42,30V29a7.008,7.008,0,0,0-7-7H29a7.008,7.008,0,0,0-7,7v1a1.033,1.033,0,0,0,.29.71l1.33,1.33A2,2,0,0,0,22,34v1a2.006,2.006,0,0,0,2,2h1.08A7.007,7.007,0,0,0,28,41.74V44.5L24.67,47h-7.8a4,4,0,0,0-7.74,0H9V42.24l1.89-3.79a.992.992,0,0,0-.03-.96l-3-5A.99.99,0,0,0,7,32H3a1,1,0,0,0-1,1V52a1.007,1.007,0,0,0,.65.94L18,58.69V61a1,1,0,0,0,1,1H45a1,1,0,0,0,1-1V58.69l15.35-5.75A1.007,1.007,0,0,0,62,52V33A1,1,0,0,0,61,32ZM4,34H6.43l2.43,4.04L7.38,41H4ZM18,56.56,4,51.31V43H7v5a1,1,0,0,0,1,1h2a1,1,0,0,0,1-1,2,2,0,0,1,4,0,1,1,0,0,0,1,1h2ZM40,35H39V34h1ZM25,35H24V34h1Zm.55-5.89A.977.977,0,0,0,25,30v.59l-1-1V29a5,5,0,0,1,5-5h6a5,5,0,0,1,5,5v.59l-1,1V30a1,1,0,0,0-.76-.97l-8-2a.978.978,0,0,0-.69.08ZM27,36V30.62l3.12-1.56L37,30.78V36a5,5,0,0,1-10,0Zm2.6,9.8A1.014,1.014,0,0,0,30,45V42.71a7.042,7.042,0,0,0,4,0V45a1.014,1.014,0,0,0,.4.8l2.78,2.09L32,50.85l-5.18-2.96Zm1.9,7.07a1.044,1.044,0,0,0,1,0l4.96-2.84L36.22,55H27.78l-1.24-4.97ZM44,60H20V49h4.22l1.81,7.24A1,1,0,0,0,27,57H37a1,1,0,0,0,.97-.76L39.78,49H44Zm16-8.69L46,56.56V49h2a1,1,0,0,0,1-1,2,2,0,0,1,4,0,1,1,0,0,0,1,1h2a1,1,0,0,0,1-1V43h3ZM60,41H56.62l-1.48-2.96L57.57,34H60Z"/></g></svg>
