<svg height="512" viewBox="0 0 64 64" width="512" xmlns="http://www.w3.org/2000/svg"><g id="air_plane" data-name="air plane"><path d="m61.41 38.92a3.069 3.069 0 0 0 -2.54-1.42 2.906 2.906 0 0 0 -2.13.88l-1.26 1.25-3.51-6.39 2.58-2.58a3.064 3.064 0 0 0 .5-3.76 2.978 2.978 0 0 0 -2.5-1.42h-.08a2.944 2.944 0 0 0 -2.1.88l-1.4 1.4-1.01-1.83 11.5-11.49a7 7 0 1 0 -9.9-9.9l-11.49 11.5-1.83-1.01 1.4-1.4a2.919 2.919 0 0 0 .88-2.11 3 3 0 0 0 -1.42-2.57 3.064 3.064 0 0 0 -3.76.5l-2.58 2.58-6.39-3.51 1.25-1.26a2.9 2.9 0 0 0 .88-2.1 3 3 0 0 0 -1.42-2.57 3.037 3.037 0 0 0 -3.76.5l-2.43 2.43-2.09-1.15a1 1 0 0 0 -1.18.17l-3.54 3.54a1 1 0 0 0 0 1.41l16.26 16.27-6.52 6.52-11.4-5.99a.986.986 0 0 0 -1.17.17l-2.83 2.83a1.008 1.008 0 0 0 0 1.42l8.49 8.48-6.37 6.37a7 7 0 0 0 9.9 9.9l6.37-6.37 8.48 8.49a1.014 1.014 0 0 0 1.42 0l2.83-2.83a1 1 0 0 0 .17-1.17l-5.99-11.4 6.52-6.52 16.27 16.26a.96.96 0 0 0 .7.29.982.982 0 0 0 .71-.29l3.54-3.54a1 1 0 0 0 .17-1.18l-1.15-2.09 2.43-2.42a3.052 3.052 0 0 0 .5-3.77zm-9.62-11.15a.928.928 0 0 1 .72-.29 1.091 1.091 0 0 1 .85.49 1.061 1.061 0 0 1 -.23 1.28l-2.16 2.16-1-1.82zm-17.04-16.9a1.063 1.063 0 0 1 1.28-.23 1 1 0 0 1 .49.88.961.961 0 0 1 -.29.69l-1.82 1.82-1.82-1zm-12.02-6.37a1.057 1.057 0 0 1 1.28-.22 1.023 1.023 0 0 1 .49.88.961.961 0 0 1 -.29.69l-1.67 1.67-1.83-1zm-8.53 4.29 2.3-2.3 20.09 11.02-6.83 6.83zm-5.66 21.21 1.6-1.6 10.2 5.36-4.02 4.02zm27.06 23.86-1.6 1.6-7.78-7.78 4.02-4.02zm1.94-20.32h-.01l-7.74 7.75-5.69 5.68-7.07 7.07a5 5 0 0 1 -7.07-7.07l7.07-7.07 5.68-5.69 7.75-7.74v-.01l8.49-8.48 12.02-12.02a5 5 0 0 1 7.07 7.07l-12.02 12.02zm17.67 16.26-15.55-15.56 6.83-6.83 11.02 20.09zm4.29-8.53-2.02 2.02-1-1.83 1.67-1.67a1.013 1.013 0 0 1 .72-.29.965.965 0 0 1 .85.49 1.057 1.057 0 0 1 -.22 1.28z"/><path d="m51.385 53.042h2v2h-2z" transform="matrix(.707 -.707 .707 .707 -22.87 52.87)"/><path d="m44.849 57.577h6v2h-6z" transform="matrix(.707 -.707 .707 .707 -27.406 50.991)"/><path d="m47.142 51.628h2.001v2h-2.001z" transform="matrix(.707 -.707 .707 .707 -23.113 49.456)"/><path d="m40.607 56.163h5.999v2h-5.999z" transform="matrix(.707 -.707 .707 .707 -27.648 47.577)"/><path d="m45.728 47.385h2v2h-2z" transform="matrix(.707 -.707 .707 .707 -20.527 47.213)"/><path d="m39.192 51.921h6v2h-6z" transform="matrix(.707 -.707 .707 .707 -25.063 45.335)"/><path d="m8.958 10.615h2v2h-2z" transform="matrix(.707 -.707 .707 .707 -5.297 10.443)"/><path d="m2.423 15.151h6v2h-6z" transform="matrix(.707 -.707 .707 .707 -9.832 8.565)"/><path d="m10.372 14.858h2.001v2h-2.001z" transform="matrix(.707 -.707 .707 .707 -7.882 12.686)"/><path d="m3.837 19.394h5.999v2h-5.999z" transform="matrix(.707 -.707 .707 .707 -12.418 10.808)"/><path d="m14.615 16.273h2v2h-2z" transform="matrix(.707 -.707 .707 .707 -7.64 16.101)"/><path d="m8.08 20.808h6v2h-6z" transform="matrix(.707 -.707 .707 .707 -12.175 14.222)"/><path d="m9.665 38.192h2v2h-2z" transform="matrix(.707 -.707 .707 .707 -24.582 19.009)"/><path d="m3.983 42.375h5v2h-5z" transform="matrix(.707 -.707 .707 .707 -28.775 17.293)"/><path d="m24.514 51.628h2v2h-2z" transform="matrix(.707 -.707 .707 .707 -29.74 33.456)"/><path d="m17.979 56.163h6v2h-6z" transform="matrix(.707 -.707 .707 .707 -34.276 31.577)"/><path d="m52.385 14.443a1 1 0 0 0 1.414 0l2.828-2.828a3 3 0 0 0 0-4.242 3.073 3.073 0 0 0 -4.243 0l-2.827 2.827a1 1 0 0 0 0 1.414zm1.415-5.656a1.023 1.023 0 0 1 1.414 0 1 1 0 0 1 0 1.413l-2.121 2.121-1.414-1.414z"/><path d="m19.857 41.313a1 1 0 0 0 -1.481.075l-6.363 7.778a1 1 0 0 0 .067 1.34l1.414 1.414a1 1 0 0 0 1.34.067l7.778-6.363a1 1 0 0 0 .075-1.481zm-5.588 8.553-.135-.135 5.091-6.222 1.266 1.266z"/><path d="m47.85 14.15h2v2h-2z" transform="matrix(.707 -.707 .707 .707 3.595 38.979)"/><path d="m17.707 28.293h33.999v2h-33.999z" transform="matrix(.707 -.707 .707 .707 -10.548 33.121)"/></g></svg>