<svg height="512" viewBox="0 0 64 64" width="512" xmlns="http://www.w3.org/2000/svg"><g id="cart"><path d="m42 19a4 4 0 1 0 4 4 4 4 0 0 0 -4-4zm0 6a2 2 0 1 1 2-2 2 2 0 0 1 -2 2z"/><path d="m32 17a4 4 0 1 0 -4-4 4 4 0 0 0 4 4zm0-6a2 2 0 1 1 -2 2 2 2 0 0 1 2-2z"/><path d="m25.686 17h22.627v2h-22.627z" transform="matrix(.707 -.707 .707 .707 -1.891 31.435)"/><path d="m62 47v2h-54a1 1 0 0 1 -.74-.33 1.036 1.036 0 0 1 -.26-.77l3.94-40.21-9.4-4.8.92-1.78 10 5.11a1.014 1.014 0 0 1 .54.99l-3.9 39.79z"/><path d="m13 50a6 6 0 1 0 6 6 6.006 6.006 0 0 0 -6-6zm0 10a4 4 0 1 1 4-4 4 4 0 0 1 -4 4z"/><path d="m51 50a6 6 0 1 0 6 6 6.006 6.006 0 0 0 -6-6zm0 10a4 4 0 1 1 4-4 4 4 0 0 1 -4 4z"/><path d="m57.94 18.04a3 3 0 0 0 -2.27-1.04h-3.72a14.982 14.982 0 0 0 -29.9 0h-5.05a.989.989 0 0 0 -.99.89l-3 26a.979.979 0 0 0 .24.78 1.006 1.006 0 0 0 .75.33h38.28a2.992 2.992 0 0 0 2.97-2.55l3.39-22a3.02 3.02 0 0 0 -.7-2.41zm-20.94-13.04a13 13 0 1 1 -13 13 13.012 13.012 0 0 1 13-13zm16.27 37.15a.993.993 0 0 1 -.99.85h-37.16l2.77-24h4.16a14.982 14.982 0 0 0 29.9 0h3.72a.993.993 0 0 1 .76.35.971.971 0 0 1 .23.8z"/><path d="m12 55h2v2h-2z"/><path d="m50 55h2v2h-2z"/><path d="m18 35h6v2h-6z"/><path d="m26 35h2v2h-2z"/><path d="m22 39h6v2h-6z"/><path d="m30 39h2v2h-2z"/><path d="m48 2h6v2h-6z"/><path d="m56 2h2v2h-2z"/><path d="m52 6h6v2h-6z"/><path d="m60 6h2v2h-2z"/></g></svg>