<svg height="512" viewBox="0 0 64 64" width="512" xmlns="http://www.w3.org/2000/svg"><g id="ceadit_card" data-name="ceadit card"><path d="m61 31h-16v-26a3.009 3.009 0 0 0 -3-3h-20a3.009 3.009 0 0 0 -3 3v26h-16a1 1 0 0 0 -1 1 30 30 0 0 0 60 0 1 1 0 0 0 -1-1zm-40-26a1 1 0 0 1 1-1h20a1 1 0 0 1 1 1v26h-3v-3a1 1 0 0 0 -1-1h-4a1 1 0 0 0 -1 1v3h-5v-4h-2v4h-6zm17 24v2h-2v-2zm-13.77 28.13-3.17.64a28.1 28.1 0 0 1 -16.38-19.67l4.44-2.1-1.05 2.63a.98.98 0 0 0 -.04.61l1 4a.993.993 0 0 0 .17.36l3 4a1 1 0 0 0 1.77-.36l1.57-6.28 2.62 2.61 2.69 6.29-2.65 3.54a1 1 0 0 0 .66 1.59l5.81.83zm7.77 2.87a27.957 27.957 0 0 1 -7.19-.94l.39-.08a1 1 0 0 0 .75-.66l1-3a1.021 1.021 0 0 0 -.1-.85.993.993 0 0 0 -.71-.46l-5.33-.76 1.99-2.65a1.007 1.007 0 0 0 .12-.99l-3-7a.988.988 0 0 0 -.21-.32l-4-4a1.011 1.011 0 0 0 -.98-.25 1 1 0 0 0 -.7.72l-1.49 5.96-1.62-2.16-.87-3.49 1.88-4.7a1.021 1.021 0 0 0 -.24-1.1 1 1 0 0 0 -.69-.27.935.935 0 0 0 -.43.1l-6.27 2.97a25.939 25.939 0 0 1 -.28-3.07h43.59l-1.24 3.73-5.05-1.68a.989.989 0 0 0 -.45-.04l-15 2a1.056 1.056 0 0 0 -.58.28l-2 2a1.033 1.033 0 0 0 -.29.71v3a1 1 0 0 0 .63.93l9.37 3.75v3.91l-4.71 4.7a1.032 1.032 0 0 0 -.28.87 1 1 0 0 0 .54.73l4.18 2.09c-.25.01-.49.02-.73.02zm4.5-.37-5.81-2.9 4.02-4.02a1.033 1.033 0 0 0 .29-.71v-5a1 1 0 0 0 -.63-.93l-9.37-3.75v-1.91l1.47-1.46 14.43-1.93 5.78 1.93a1.011 1.011 0 0 0 1.27-.63l1.17-3.51 1.88 4.4v8.79a.984.984 0 0 0 .53.88.977.977 0 0 0 1.02-.05l1.85-1.23.23.86a28 28 0 0 1 -18.13 11.17zm19.6-13.4-.13-.49a1.05 1.05 0 0 0 -.62-.68.991.991 0 0 0 -.9.11l-1.45.96v-7.13a1.006 1.006 0 0 0 -.08-.39l-2.4-5.61h9.46a27.828 27.828 0 0 1 -3.88 13.23z"/><path d="m23 27h2v2h-2z"/><path d="m23 19h2v2h-2z"/><path d="m23 23h2v2h-2z"/><path d="m27 19h2v6h-2z"/><path d="m35 14h4a1 1 0 0 0 1-1v-7a1 1 0 0 0 -1-1h-4a1 1 0 0 0 -1 1v7a1 1 0 0 0 1 1zm1-7h2v5h-2z"/><path d="m35 25h4a1 1 0 0 0 1-1v-7a1 1 0 0 0 -1-1h-4a1 1 0 0 0 -1 1v7a1 1 0 0 0 1 1zm1-7h2v5h-2z"/><path d="m27 17a3.987 3.987 0 0 0 3.449-6.01 3.951 3.951 0 0 0 .551-1.99 4 4 0 0 0 -8 0 3.951 3.951 0 0 0 .551 1.99 3.987 3.987 0 0 0 3.449 6.01zm0-2a2 2 0 0 1 -2-2 1.973 1.973 0 0 1 .076-.515 3.851 3.851 0 0 0 3.848 0 1.973 1.973 0 0 1 .076.515 2 2 0 0 1 -2 2zm0-8a2 2 0 1 1 -2 2 2 2 0 0 1 2-2z"/><path d="m49 8h2v-2h2v-2h-2v-2h-2v2h-2v2h2z"/><path d="m53 10v2h2v2h2v-2h2v-2h-2v-2h-2v2z"/><path d="m13 8h2v-2h2v-2h-2v-2h-2v2h-2v2h2z"/><path d="m7 14h2v-2h2v-2h-2v-2h-2v2h-2v2h2z"/><path d="m47 23h2v6h-2z"/><path d="m47 19h2v2h-2z"/><path d="m51 19h2v6h-2z"/><path d="m51 15h2v2h-2z"/><path d="m15 23h2v6h-2z"/><path d="m15 19h2v2h-2z"/><path d="m11 19h2v6h-2z"/><path d="m11 15h2v2h-2z"/></g></svg>