<svg height="512" viewBox="0 0 64 64" width="512" xmlns="http://www.w3.org/2000/svg"><g id="coupon"><path d="m13 8h2v2h-2z"/><path d="m13 12h2v2h-2z"/><path d="m49 8h2v2h-2z"/><path d="m49 12h2v2h-2z"/><path d="m62 10.99a.982.982 0 0 0 -.45-.83l-2.75-1.83 2.75-1.84a1 1 0 0 0 .45-.83.982.982 0 0 0 -.45-.83l-4-2.66a.967.967 0 0 0 -.55-.17h-50a.967.967 0 0 0 -.55.17l-4 2.66a.982.982 0 0 0 -.45.83 1 1 0 0 0 .45.83l2.75 1.84-2.75 1.83a.982.982 0 0 0 -.45.83 1 1 0 0 0 .45.83l2.75 1.84-2.75 1.84a.99.99 0 0 0 0 1.66l3.84 2.57a3 3 0 0 0 -.29 1.27v16.8a6.911 6.911 0 0 0 .54 2.69l3.96 9.51h-1.5a1 1 0 0 0 -1 1v4a1 1 0 0 0 1 1h1.38l-2.27 4.55a1 1 0 0 0 .89 1.45h18a1 1 0 0 0 .89-1.45l-2.27-4.55h1.38a1 1 0 0 0 1-1v-4a1 1 0 0 0 -1-1h-1.5l4.17-10h4.66l4.17 10h-1.5a1 1 0 0 0 -1 1v4a1 1 0 0 0 1 1h1.61l-1.56 4.68a1 1 0 0 0 .14.9.983.983 0 0 0 .81.42h16a.983.983 0 0 0 .81-.42 1 1 0 0 0 .14-.9l-1.56-4.68h1.61a1 1 0 0 0 1-1v-4a1 1 0 0 0 -1-1h-1.5l3.96-9.51a6.911 6.911 0 0 0 .54-2.69v-16.8a3 3 0 0 0 -.29-1.27l3.84-2.57a.99.99 0 0 0 0-1.66l-2.75-1.84 2.75-1.84a1 1 0 0 0 .45-.83zm-51.38 49.01 2-4h10.76l2 4zm15.38-8v2h-16v-2zm2-13.2-4.67 11.2h-10.66l-4.29-10.28a5.056 5.056 0 0 1 -.38-1.92v-16.8a1 1 0 0 1 2 0v16a3.009 3.009 0 0 0 3 3h12a1 1 0 0 0 1-1v-4a.949.949 0 0 1 .31-.71.937.937 0 0 1 .78-.29 1.092 1.092 0 0 1 .91 1.11zm-3.76-4.97a2.917 2.917 0 0 0 -.24 1.17v3h-11a1 1 0 0 1 -1-1v-16a3 3 0 0 0 -.18-1h5.23c-.02.33-.05.66-.05 1a14.929 14.929 0 0 0 7.24 12.83zm9.76 4.17h-4v-2.15a13.408 13.408 0 0 0 4 0zm.26-4.21a13.177 13.177 0 0 1 -4.56-.01 3 3 0 0 0 -2.44-1.77 2.963 2.963 0 0 0 -1.61.33 13.009 13.009 0 1 1 12.7-.01 2.872 2.872 0 0 0 -1.09-.32 2.962 2.962 0 0 0 -2.37.86 3.017 3.017 0 0 0 -.63.92zm12.69-13.79h5.23a3 3 0 0 0 -.18 1v16a1 1 0 0 1 -1 1h-11v-2.89a3.165 3.165 0 0 0 -.27-1.26 14.934 14.934 0 0 0 7.27-12.85c0-.34-.03-.67-.05-1zm-7.56 40 1.33-4h10.56l1.33 4zm14.61-8v2h-16v-2zm2-14.2a5.056 5.056 0 0 1 -.38 1.92l-4.29 10.28h-10.66l-4.67-11.2v-3.8a.949.949 0 0 1 .31-.71.937.937 0 0 1 .78-.29 1.092 1.092 0 0 1 .91 1.11v3.89a1 1 0 0 0 1 1h12a3.009 3.009 0 0 0 3-3v-16a1 1 0 0 1 2 0zm.45-24.97a.99.99 0 0 0 0 1.66l2.75 1.84-2.5 1.67h-5.7v-2h-2v2h-2.3a15 15 0 0 0 -29.4 0h-2.3v-2h-2v2h-5.7l-2.5-1.67 2.75-1.84a.99.99 0 0 0 0-1.66l-2.75-1.84 2.75-1.83a.982.982 0 0 0 .45-.83 1 1 0 0 0 -.45-.83l-2.75-1.84 2.5-1.66h5.7v2h2v-2h34v2h2v-2h5.7l2.5 1.66-2.75 1.84a1 1 0 0 0 -.45.83.982.982 0 0 0 .45.83l2.75 1.83z"/><path d="m37 22a4 4 0 1 0 4 4 4 4 0 0 0 -4-4zm0 6a2 2 0 1 1 2-2 2 2 0 0 1 -2 2z"/><path d="m27 20a4 4 0 1 0 -4-4 4 4 0 0 0 4 4zm0-6a2 2 0 1 1 -2 2 2 2 0 0 1 2-2z"/><path d="m20.686 20h22.627v2h-22.627z" transform="matrix(.707 -.707 .707 .707 -5.477 28.778)"/><path d="m14 34h6v2h-6z"/><path d="m14 30h4v2h-4z"/><path d="m14 26h2v2h-2z"/><path d="m44 34h6v2h-6z"/><path d="m46 30h4v2h-4z"/><path d="m48 26h2v2h-2z"/></g></svg>