<svg height="512" viewBox="0 0 64 64" width="512" xmlns="http://www.w3.org/2000/svg"><g id="cruise"><path d="m12 60h40v2h-40z"/><path d="m52.54 56 7.37-16.59a.993.993 0 0 0 -.5-1.32l-5.41-2.41v-18.68a1 1 0 0 0 -1-1h-5v-5a1 1 0 0 0 -1-1h-3v-7a1 1 0 0 0 -1-1h-8a1 1 0 0 0 -1 1v7h-4v-7a1 1 0 0 0 -1-1h-8a1 1 0 0 0 -1 1v7h-3a1 1 0 0 0 -1 1v5h-5a1 1 0 0 0 -1 1v18.68l-5.41 2.41a.993.993 0 0 0 -.5 1.32l7.37 16.59h-9.46v2h60v-2zm-16.54-52h6v6h-6zm-14 0h6v6h-6zm-4 8h28v4h-28zm-6 6h40v16.92l-19.67-6.86a.937.937 0 0 0 -.66 0l-19.67 6.86zm12.39 38 3.33-10h8.56l3.33 10zm25.96 0h-8.63l-3.77-11.32a1.014 1.014 0 0 0 -.95-.68h-10a1.014 1.014 0 0 0 -.95.68l-3.77 11.32h-8.63l-7.33-16.49 5.01-2.24 20.67-7.21 20.59 7.18 5.09 2.27z"/><path d="m15 28h12a1 1 0 0 0 1-1v-6a1 1 0 0 0 -1-1h-12a1 1 0 0 0 -1 1v6a1 1 0 0 0 1 1zm1-6h10v4h-10z"/><path d="m37 28h12a1 1 0 0 0 1-1v-6a1 1 0 0 0 -1-1h-12a1 1 0 0 0 -1 1v6a1 1 0 0 0 1 1zm1-6h10v4h-10z"/><path d="m50 8h2v-2h2v-2h-2v-2h-2v2h-2v2h2z"/><path d="m60 11v-2h-2v2h-2v2h2v2h2v-2h2v-2z"/><path d="m12 8h2v-2h2v-2h-2v-2h-2v2h-2v2h2z"/><path d="m4 15h2v-2h2v-2h-2v-2h-2v2h-2v2h2z"/></g></svg>