<svg height="512" viewBox="0 0 64 64" width="512" xmlns="http://www.w3.org/2000/svg"><g id="customer"><path d="m29 24h2v2h-2z"/><path d="m33 24h2v2h-2z"/><path d="m45 39h-5.67l-3.33-2.5v-2.76a7.007 7.007 0 0 0 2.92-4.74h1.08a2.006 2.006 0 0 0 2-2v-1a2.006 2.006 0 0 0 -2-2h-1v-.28a7 7 0 0 0 3-5.72v-4a1 1 0 0 0 -1-1h-12a7.008 7.008 0 0 0 -7 7v2a2.984 2.984 0 0 0 1.04 2.25 2.012 2.012 0 0 0 -1.04 1.75v1a2.006 2.006 0 0 0 2 2h1.08a7.007 7.007 0 0 0 2.92 4.74v2.76l-3.33 2.5h-5.67a1 1 0 0 0 -1 1v9a1 1 0 0 0 1 1h26a1 1 0 0 0 1-1v-9a1 1 0 0 0 -1-1zm-5-13v1h-1v-1zm-15 1h-1v-1h1zm.55-5.89a.977.977 0 0 0 -.55.89v1a1 1 0 0 1 -1-1v-2a5 5 0 0 1 5-5h11v3a4.971 4.971 0 0 1 -1.28 3.32 1.072 1.072 0 0 0 -.48-.29l-8-2a.978.978 0 0 0 -.69.08zm1.45 6.89v-5.38l3.12-1.56 6.88 1.72v5.22a5 5 0 0 1 -10 0zm2.6 9.8a1.014 1.014 0 0 0 .4-.8v-2.29a7.042 7.042 0 0 0 4 0v2.29a1.014 1.014 0 0 0 .4.8l2.78 2.09-5.18 2.96-5.18-2.96zm14.4 10.2h-24v-7h4.73l6.77 3.87a1.044 1.044 0 0 0 1 0l6.77-3.87h4.73z"/><path d="m32 10a4 4 0 1 0 -4-4 4 4 0 0 0 4 4zm0-6a2 2 0 1 1 -2 2 2 2 0 0 1 2-2z"/><path d="m10 32a4 4 0 1 0 -4 4 4 4 0 0 0 4-4zm-4 2a2 2 0 1 1 2-2 2 2 0 0 1 -2 2z"/><path d="m32 54a4 4 0 1 0 4 4 4 4 0 0 0 -4-4zm0 6a2 2 0 1 1 2-2 2 2 0 0 1 -2 2z"/><path d="m58 28a4 4 0 1 0 4 4 4 4 0 0 0 -4-4zm0 6a2 2 0 1 1 2-2 2 2 0 0 1 -2 2z"/><path d="m37.184 6.698h2v1.811h-2z" transform="matrix(.389 -.921 .921 .389 16.341 39.832)"/><path d="m43.856 9.511h2v1.81h-2z" transform="matrix(.388 -.921 .921 .388 17.834 47.704)"/><path d="m40.52 8.105h2v1.81h-2z" transform="matrix(.388 -.921 .921 .388 17.09 43.77)"/><path d="m54.085 40.52h1.81v2h-1.81z" transform="matrix(.389 -.921 .921 .389 -4.639 76.049)"/><path d="m52.678 43.856h1.811v2h-1.811z" transform="matrix(.389 -.921 .921 .389 -8.569 76.799)"/><path d="m55.491 37.184h1.81v2h-1.81z" transform="matrix(.389 -.921 .921 .389 -.705 75.305)"/><path d="m18.144 52.678h2v1.811h-2z" transform="matrix(.389 -.921 .921 .389 -37.668 50.402)"/><path d="m21.48 54.085h2v1.81h-2z" transform="matrix(.388 -.921 .921 .388 -36.924 54.344)"/><path d="m24.816 55.491h2v1.81h-2z" transform="matrix(.388 -.921 .921 .388 -36.18 58.279)"/><path d="m8.105 21.48h1.81v2h-1.81z" transform="matrix(.389 -.921 .921 .389 -15.205 22.044)"/><path d="m9.511 18.144h1.81v2h-1.81z" transform="matrix(.388 -.921 .921 .388 -11.27 21.306)"/><path d="m6.698 24.816h1.811v2h-1.811z" transform="matrix(.389 -.921 .921 .389 -19.138 22.788)"/><path d="m9.416 43.951h2v1.81h-2z" transform="matrix(.921 -.388 .388 .921 -16.606 7.569)"/><path d="m6.603 37.278h2v1.811h-2z" transform="matrix(.921 -.389 .389 .921 -14.243 5.957)"/><path d="m8.01 40.615h2v1.81h-2z" transform="matrix(.921 -.389 .389 .921 -15.429 6.766)"/><path d="m43.951 52.583h1.81v2h-1.81z" transform="matrix(.921 -.389 .389 .921 -17.299 21.647)"/><path d="m37.278 55.397h1.811v2h-1.811z" transform="matrix(.921 -.389 .389 .921 -18.918 19.275)"/><path d="m40.615 53.99h1.81v2h-1.81z" transform="matrix(.921 -.389 .389 .921 -18.109 20.461)"/><path d="m55.396 24.911h2v1.81h-2z" transform="matrix(.921 -.389 .389 .921 -5.6 23.949)"/><path d="m53.99 21.575h2v1.81h-2z" transform="matrix(.921 -.389 .389 .921 -4.414 23.14)"/><path d="m52.583 18.238h2v1.811h-2z" transform="matrix(.921 -.389 .389 .921 -3.228 22.331)"/><path d="m18.238 9.416h1.81v2h-1.81z" transform="matrix(.921 -.389 .389 .921 -2.543 8.259)"/><path d="m24.911 6.604h1.81v2h-1.81z" transform="matrix(.921 -.389 .389 .921 -.926 10.632)"/><path d="m21.575 8.01h1.81v2h-1.81z" transform="matrix(.921 -.389 .389 .921 -1.734 9.446)"/><path d="m13 17a4 4 0 1 0 -4-4 4 4 0 0 0 4 4zm0-6a2 2 0 1 1 -2 2 2 2 0 0 1 2-2z"/><path d="m13 47a4 4 0 1 0 4 4 4 4 0 0 0 -4-4zm0 6a2 2 0 1 1 2-2 2 2 0 0 1 -2 2z"/><path d="m51 17a4 4 0 1 0 -4-4 4 4 0 0 0 4 4zm0-6a2 2 0 1 1 -2 2 2 2 0 0 1 2-2z"/><path d="m51 47a4 4 0 1 0 4 4 4 4 0 0 0 -4-4zm0 6a2 2 0 1 1 2-2 2 2 0 0 1 -2 2z"/><path d="m21.03 29.69a1 1 0 0 0 -.95-.69h-1.63l-.5-1.54a.995.995 0 0 0 -1.9 0l-.5 1.54h-1.63a1 1 0 0 0 -.95.69 1.012 1.012 0 0 0 .36 1.12l1.32.95-.5 1.55a1 1 0 0 0 .36 1.12 1.022 1.022 0 0 0 1.18 0l1.31-.96 1.31.96a1.086 1.086 0 0 0 .59.19 1.061 1.061 0 0 0 .59-.19 1 1 0 0 0 .36-1.12l-.5-1.55 1.32-.95a1.012 1.012 0 0 0 .36-1.12zm-3.85 1.56a1.625 1.625 0 0 0 -.36 0 1.118 1.118 0 0 0 -.12-.35.9.9 0 0 0 .3-.21.9.9 0 0 0 .3.21 1.118 1.118 0 0 0 -.12.35z"/><path d="m51.03 29.69a1 1 0 0 0 -.95-.69h-1.63l-.5-1.54a.995.995 0 0 0 -1.9 0l-.5 1.54h-1.63a1 1 0 0 0 -.95.69 1.012 1.012 0 0 0 .36 1.12l1.32.95-.5 1.55a1 1 0 0 0 .36 1.12 1.022 1.022 0 0 0 1.18 0l1.31-.96 1.31.96a1.086 1.086 0 0 0 .59.19 1.061 1.061 0 0 0 .59-.19 1 1 0 0 0 .36-1.12l-.5-1.55 1.32-.95a1.012 1.012 0 0 0 .36-1.12zm-3.85 1.56a1.625 1.625 0 0 0 -.36 0 1.118 1.118 0 0 0 -.12-.35.9.9 0 0 0 .3-.21.9.9 0 0 0 .3.21 1.118 1.118 0 0 0 -.12.35z"/></g></svg>