<svg height="512" viewBox="0 0 64 64" width="512" xmlns="http://www.w3.org/2000/svg"><g id="delivery"><path d="m59 28h-1.25l-3.42-12h.67a3 3 0 0 0 0-6h-15a3.009 3.009 0 0 0 -3-3h-32a3.009 3.009 0 0 0 -3 3v39a3.009 3.009 0 0 0 3 3h1.08a6.991 6.991 0 0 0 13.84 0h2.16a6.991 6.991 0 0 0 13.84 0h8.16a6.991 6.991 0 0 0 13.84 0h1.08a3.009 3.009 0 0 0 3-3v-18a3.009 3.009 0 0 0 -3-3zm-46 28a5 5 0 1 1 5-5 5 5 0 0 1 -5 5zm16 0a5 5 0 1 1 5-5 5 5 0 0 1 -5 5zm9-6h-2.08a6.991 6.991 0 0 0 -13.84 0h-2.16a6.991 6.991 0 0 0 -13.84 0h-1.08a1 1 0 0 1 -1-1v-4h3a1.033 1.033 0 0 0 .71-.29l1.7-1.71h8.18l1.7 1.71a1.033 1.033 0 0 0 .71.29h2a1.033 1.033 0 0 0 .71-.29l1.7-1.71h8.18l1.7 1.71a1.033 1.033 0 0 0 .71.29h3zm0-7h-2.59l-1.7-1.71a1.033 1.033 0 0 0 -.71-.29h-9a1.033 1.033 0 0 0 -.71.29l-1.7 1.71h-1.18l-1.7-1.71a1.033 1.033 0 0 0 -.71-.29h-9a1.033 1.033 0 0 0 -.71.29l-1.7 1.71h-2.59v-33a1 1 0 0 1 1-1h32a1 1 0 0 1 1 1zm2-31h15a1 1 0 0 1 0 2h-15zm0 4h12.25l3.42 12h-11.67v-7a1 1 0 0 0 -1-1h-3zm0 6h2v6h-2zm0 12h2v2h-2zm11 22a5 5 0 1 1 5-5 5 5 0 0 1 -5 5zm9-20h-3a1 1 0 0 1 0-2h3zm0-4h-3a3 3 0 0 0 0 6h3v11a1 1 0 0 1 -1 1h-1.08a6.991 6.991 0 0 0 -13.84 0h-4.08v-12h3a1 1 0 0 0 1-1v-4a1 1 0 0 0 -1-1h-3v-2h19a1 1 0 0 1 1 1z"/><path d="m12 50h2v2h-2z"/><path d="m28 50h2v2h-2z"/><path d="m50 50h2v2h-2z"/><path d="m29 13h-16a3.009 3.009 0 0 0 -3 3v18a3.009 3.009 0 0 0 3 3h16a3.009 3.009 0 0 0 3-3v-18a3.009 3.009 0 0 0 -3-3zm-9 2h2v2.59l-.29-.3a1.008 1.008 0 0 0 -1.42 0l-.29.3zm10 19a1 1 0 0 1 -1 1h-16a1 1 0 0 1 -1-1v-18a1 1 0 0 1 1-1h5v5a.987.987 0 0 0 .62.92 1 1 0 0 0 1.09-.21l1.29-1.3 1.29 1.3a1.007 1.007 0 0 0 .71.29.838.838 0 0 0 .38-.08.987.987 0 0 0 .62-.92v-5h5a1 1 0 0 1 1 1z"/></g></svg>