<svg height="512" viewBox="0 0 64 64" width="512" xmlns="http://www.w3.org/2000/svg"><g id="growth"><path d="m55.63 24.55a9.538 9.538 0 0 0 -2.23-.42c.04-.32.06-.59.08-.82a9.584 9.584 0 0 1 2.67-.82 10.812 10.812 0 0 1 5.49.61l.72-1.86a12.724 12.724 0 0 0 -6.51-.73 11.641 11.641 0 0 0 -3.35 1.05 14.356 14.356 0 0 0 -2.37-.55 3.371 3.371 0 0 0 .32-.19c3.11-2.18 3.05-7.34 3.05-7.56a1.008 1.008 0 0 0 -.64-.91 11.782 11.782 0 0 0 -6.32-.54 9.746 9.746 0 0 0 .46-2.98c0-3.8-4.26-6.71-4.44-6.83a1.033 1.033 0 0 0 -1.12 0c-.18.12-4.44 3.03-4.44 6.83a9.746 9.746 0 0 0 .46 2.98 11.782 11.782 0 0 0 -6.32.54 1.008 1.008 0 0 0 -.64.91c0 .22-.06 5.38 3.05 7.56a3.371 3.371 0 0 0 .32.19 14.356 14.356 0 0 0 -2.37.55 11.641 11.641 0 0 0 -3.35-1.05 12.74 12.74 0 0 0 -6.51.73l.72 1.86a10.923 10.923 0 0 1 5.49-.61 9.584 9.584 0 0 1 2.67.82c.02.23.04.5.08.82a9.345 9.345 0 0 0 -2.22.41 11.048 11.048 0 0 0 -6.62 5.88l1.82.82a9.23 9.23 0 0 1 5.39-4.79 8.232 8.232 0 0 1 2.01-.35 7.134 7.134 0 0 0 2.57 4.05 8.684 8.684 0 0 0 4.7 1.66h.15a4.929 4.929 0 0 0 2.6-.67v11.86h-3a.984.984 0 0 0 -.53-.88l-15-8a.974.974 0 0 0 -.88-.03l-7.59 3.37v-.46a1 1 0 0 0 -1-1h-4a1 1 0 0 0 -1 1v1h-5a1 1 0 0 0 -1 1v16a.983.983 0 0 0 .42.81.939.939 0 0 0 .58.19 1.185 1.185 0 0 0 .32-.05l4.68-1.56v.61a1 1 0 0 0 1 1h4a1 1 0 0 0 .99-.93l8.39 6.71a.977.977 0 0 0 .62.22h29a4 4 0 0 0 0-8h-.9l.9-9.91a1.01 1.01 0 0 0 -1-1.09h-8v-11.86a4.929 4.929 0 0 0 2.6.67h.15a8.684 8.684 0 0 0 4.7-1.66 7.134 7.134 0 0 0 2.57-4.05 7.875 7.875 0 0 1 2.02.36 9.2 9.2 0 0 1 5.38 4.78l1.82-.82a11.016 11.016 0 0 0 -6.61-5.87zm-47.63 27.73-4 1.33v-13.61h4zm4 1.72h-2v-16h2zm33.86-39.73c1.69-1.18 4.37-.62 5.61-.27-.09 1.29-.48 4-2.17 5.18a6.717 6.717 0 0 1 -3.59 1.3 2.607 2.607 0 0 1 -2.22-.89c-.94-1.33.15-3.77 2.37-5.32zm-13.33-.27c1.44-.42 4.03-.84 5.61.27 2.22 1.55 3.31 3.99 2.37 5.32a2.636 2.636 0 0 1 -2.22.89 6.717 6.717 0 0 1 -3.59-1.3c-1.69-1.18-2.08-3.9-2.17-5.18zm7.98 14.93a2.624 2.624 0 0 1 -2.22.88 6.784 6.784 0 0 1 -3.59-1.29c-1.69-1.19-2.08-3.91-2.17-5.19 1.44-.42 4.03-.83 5.61.27a6.694 6.694 0 0 1 2.44 2.94 2.6 2.6 0 0 1 -.07 2.39zm-.78-6.61a4.334 4.334 0 0 0 1.27-.51v1.7a9.605 9.605 0 0 0 -1.27-1.19zm12.27 33.68a2 2 0 0 1 0 4h-28.65l-9.35-7.48v-12.87l7.96-3.54 14.04 7.49v1.4a1 1 0 0 1 -1 1h-13a1 1 0 0 0 -.94.67.983.983 0 0 0 .32 1.11l10 8a.977.977 0 0 0 .62.22zm-19.1-2h-.55l-7.5-6h7.51zm17.01-9-.82 9h-14.18l-.54-6h.63a3.009 3.009 0 0 0 3-3zm-7.91-31.17c-1.63 0-3-2.29-3-5 0-2.06 2-3.93 3-4.74 1 .81 3 2.68 3 4.74 0 2.71-1.37 5-3 5zm1 7.98a4.334 4.334 0 0 0 1.27.51 9.605 9.605 0 0 0 -1.27 1.19zm6.3 6.71a6.784 6.784 0 0 1 -3.59 1.29 2.613 2.613 0 0 1 -2.22-.88 2.6 2.6 0 0 1 -.07-2.39 6.694 6.694 0 0 1 2.44-2.94 4.648 4.648 0 0 1 2.69-.71 10.793 10.793 0 0 1 2.92.45c-.09 1.28-.48 3.99-2.17 5.18z"/><path d="m12 2a10 10 0 1 0 10 10 10.016 10.016 0 0 0 -10-10zm0 18a8 8 0 1 1 8-8 8.011 8.011 0 0 1 -8 8z"/><path d="m11 10v1h3a1 1 0 0 1 1 1v3a1 1 0 0 1 -1 1h-1v2h-2v-2h-2v-2h4v-1h-3a1 1 0 0 1 -1-1v-3a1 1 0 0 1 1-1h1v-2h2v2h2v2z"/><path d="m26.414 7h9.586v-2h-10a1 1 0 0 0 -.707.293l-3 3 1.414 1.414z"/><path d="m41 49h2v2h-2z"/><path d="m45 49h2v2h-2z"/><path d="m37 49h2v2h-2z"/></g></svg>