<svg height="512" viewBox="0 0 64 64" width="512" xmlns="http://www.w3.org/2000/svg"><g id="laptop"><path d="m61.75 54.34a.981.981 0 0 0 -.75-.34h-1v-31a3.009 3.009 0 0 0 -3-3h-1v-15a3.009 3.009 0 0 0 -3-3h-42a3.009 3.009 0 0 0 -3 3v15h-1a3.009 3.009 0 0 0 -3 3v31h-1a.981.981 0 0 0 -.75.34 1.012 1.012 0 0 0 -.24.8l.62 4.48c.01.04.01.07.02.11a3 3 0 0 0 2.91 2.27h52.88a3 3 0 0 0 2.91-2.27c.01-.04.01-.07.02-.11l.62-4.48a1.012 1.012 0 0 0 -.24-.8zm-51.75-49.34a1 1 0 0 1 1-1h42a1 1 0 0 1 1 1v5h-44zm0 7h44v37a1 1 0 0 1 -1 1h-42a1 1 0 0 1 -1-1zm-4 11a1 1 0 0 1 1-1h1v27a3.009 3.009 0 0 0 3 3h42a3.009 3.009 0 0 0 3-3v-27h1a1 1 0 0 1 1 1v31h-22a1 1 0 0 0 -1 1v1h-6v-1a1 1 0 0 0 -1-1h-22zm53.4 36.29a1.008 1.008 0 0 1 -.96.71h-52.88a1.008 1.008 0 0 1 -.96-.71l-.45-3.29h22.85v1a1 1 0 0 0 1 1h8a1 1 0 0 0 1-1v-1h22.85z"/><path d="m20 6h2v2h-2z"/><path d="m16 6h2v2h-2z"/><path d="m12 6h2v2h-2z"/><path d="m13 22h38a1 1 0 0 0 1-1v-6a1 1 0 0 0 -1-1h-38a1 1 0 0 0 -1 1v6a1 1 0 0 0 1 1zm1-6h36v4h-36z"/><path d="m13 32h10a1 1 0 0 0 1-1v-6a1 1 0 0 0 -1-1h-10a1 1 0 0 0 -1 1v6a1 1 0 0 0 1 1zm1-6h8v4h-8z"/><path d="m13 48h24a1 1 0 0 0 1-1v-12a1 1 0 0 0 -1-1h-24a1 1 0 0 0 -1 1v12a1 1 0 0 0 1 1zm1-12h22v10h-22z"/><path d="m26 25h4v2h-4z"/><path d="m32 25h20v2h-20z"/><path d="m26 29h16v2h-16z"/><path d="m44 29h8v2h-8z"/><path d="m40 36h7v2h-7z"/><path d="m49 36h3v2h-3z"/><path d="m40 40h12v2h-12z"/><path d="m40 44h4v2h-4z"/><path d="m46 44h6v2h-6z"/></g></svg>