<?xml version="1.0"?>
<svg xmlns="http://www.w3.org/2000/svg" viewBox="0 0 64 64" width="512" height="512"><g id="logistic"><path d="M58,8a4.091,4.091,0,0,0-1,.14V5a3.009,3.009,0,0,0-3-3H10A3.009,3.009,0,0,0,7,5V8.14A4.091,4.091,0,0,0,6,8a4,4,0,0,0-4,4V41a.977.977,0,0,0,.22.62l6.71,8.39A1,1,0,0,0,8,51v4a1,1,0,0,0,1,1h.61L8.05,60.68a1,1,0,0,0,.14.9A.983.983,0,0,0,9,62H25a1,1,0,0,0,1-1V56h1a1,1,0,0,0,1-1V51a1,1,0,0,0-1-1h-.46l1.33-3h8.26l1.33,3H37a1,1,0,0,0-1,1v4a1,1,0,0,0,1,1h1v5a1,1,0,0,0,1,1H55a.983.983,0,0,0,.81-.42,1,1,0,0,0,.14-.9L54.39,56H55a1,1,0,0,0,1-1V51a1,1,0,0,0-.93-.99l6.71-8.39A.977.977,0,0,0,62,41V12A4,4,0,0,0,58,8ZM27,4H37V23.13l-4.45-2.96a.975.975,0,0,0-1.1,0L27,23.13ZM24,60H10.39l1.33-4H24Zm2-6H10V52H26Zm-1.65-4H11.48L4,40.65V12a2,2,0,0,1,4,0V32a.977.977,0,0,0,.22.62l8,10a.983.983,0,0,0,1.11.32A1,1,0,0,0,18,42V29a1,1,0,0,1,1-1h1.4l7.49,14.04Zm4.41-5,1.15-2.59a.974.974,0,0,0-.03-.88l-8-15A.984.984,0,0,0,21,26H19a3.009,3.009,0,0,0-3,3V39.15l-6-7.5V12A4,4,0,0,0,9,9.38V5a1,1,0,0,1,1-1H25V25a.984.984,0,0,0,.53.88.963.963,0,0,0,1.02-.05L32,22.2l5.45,3.63A1,1,0,0,0,39,25V4H54a1,1,0,0,1,1,1V9.38A4,4,0,0,0,54,12V31.65l-6,7.5V29a3.009,3.009,0,0,0-3-3H43a.984.984,0,0,0-.88.53l-8,15a.974.974,0,0,0-.03.88L35.24,45ZM40,60V56H52.28l1.33,4Zm14-6H38V52H54Zm6-13.35L52.52,50H39.65l-3.54-7.96L43.6,28H45a1,1,0,0,1,1,1V42a1,1,0,0,0,.67.94.983.983,0,0,0,1.11-.32l8-10A.977.977,0,0,0,56,32V12a2,2,0,0,1,4,0Z"/></g></svg>
