<svg height="512" viewBox="0 0 64 64" width="512" xmlns="http://www.w3.org/2000/svg"><g id="megaphone"><path d="m62.07 23.14-5.71-5.71a6.993 6.993 0 0 0 -9.79-9.79l-5.72-5.72a1.021 1.021 0 0 0 -.86-.28 1.059 1.059 0 0 0 -.74.54l-13.26 26.53a7.016 7.016 0 0 0 -6.99-6.71h-6a7.008 7.008 0 0 0 -7 7v1a1.033 1.033 0 0 0 .29.71l1.33 1.33a2 2 0 0 0 -1.62 1.96v1a2.006 2.006 0 0 0 2 2h1.08a7.007 7.007 0 0 0 2.92 4.74v2.76l-3.33 2.5h-5.67a1 1 0 0 0 -1 1v13a1 1 0 0 0 1 1h26a1 1 0 0 0 1-1v-13a1 1 0 0 0 -1-1h-5.67l-3.33-2.5v-2.76a7.153 7.153 0 0 0 1.98-2.12l4.03 4.03a3 3 0 0 0 2.12.87 2.964 2.964 0 0 0 2.11-.87l1.42-1.41a1 1 0 0 0 .3-.71 1.052 1.052 0 0 0 -.29-.71l-.71-.71 1.41-1.41 10.61 10.61a1.033 1.033 0 0 0 .71.29 1.009 1.009 0 0 0 .7-.29l2.83-2.83a1 1 0 0 0 .14-1.24l-6.32-10.12 20.77-10.38a1.059 1.059 0 0 0 .54-.74 1.011 1.011 0 0 0 -.28-.86zm-7.78-13.43a5.005 5.005 0 0 1 .64 6.29l-6.93-6.93a5.005 5.005 0 0 1 6.29.64zm-29.19 21.61a.832.832 0 0 0 .2.3l.01.01-.53.53a1.419 1.419 0 0 0 -.4-.12zm-16.1 3.68h-1v-1h1zm12.97 21.24 1.81-7.24h4.22v11h-24v-11h4.22l1.81 7.24a1 1 0 0 0 .97.76h10a1 1 0 0 0 .97-.76zm-1.75-1.24h-8.44l-1.24-4.97 4.96 2.84a1.044 1.044 0 0 0 1 0l4.96-2.84zm.96-7.11-5.18 2.96-5.18-2.96 2.78-2.09a1.014 1.014 0 0 0 .4-.8v-2.29a7.042 7.042 0 0 0 4 0v2.29a1.014 1.014 0 0 0 .4.8zm-.18-11.89a5 5 0 0 1 -10 0v-5.38l3.12-1.56 6.88 1.72zm1.24-6.97-8-2a.978.978 0 0 0 -.69.08l-4 2a.977.977 0 0 0 -.55.89v.59l-1-1v-.59a5 5 0 0 1 5-5h6a5 5 0 0 1 5 5v.59l-1 1v-.59a1 1 0 0 0 -.76-.97zm1.76 4.97v1h-1v-1zm4.83 8.23a1 1 0 0 1 -1.4 0l-4.62-4.62c.04-.2.08-.4.11-.61h1.08a1.909 1.909 0 0 0 .83-.19l4 4.01.71.71zm.71-3.53-3.55-3.56c0-.05.01-.09.01-.14v-1a1.492 1.492 0 0 0 -.02-.21l.74-.74 3.97 3.97.27.26zm15.71 6.92-1.56 1.56-8.93-8.92 4.48-2.24zm-11.98-8.85-.19-.19v-.01l-1.08-1.07-4.78-4.78 13.2-26.4 5.39 5.39 8.48 8.48 5.38 5.38z"/><path d="m40.151 9.707 12.9 12.9-19.7 9.537.871 1.8 20.964-10.152a1 1 0 0 0 .271-1.606l-13.892-13.893z"/><path d="m56.172 4h5.657v2h-5.657z" transform="matrix(.707 -.707 .707 .707 13.745 43.184)"/><path d="m58 8h4v2h-4z"/><path d="m54 2h2v4h-2z"/><path d="m13 32h2v2h-2z"/><path d="m17 32h2v2h-2z"/><path d="m21 2h-16a3.009 3.009 0 0 0 -3 3v8a3.009 3.009 0 0 0 3 3h2.59l3.7 3.71a1.007 1.007 0 0 0 .71.29.838.838 0 0 0 .38-.08.987.987 0 0 0 .62-.92v-3h8a3.009 3.009 0 0 0 3-3v-8a3.009 3.009 0 0 0 -3-3zm1 11a1 1 0 0 1 -1 1h-9a1 1 0 0 0 -1 1v1.59l-2.29-2.3a1.033 1.033 0 0 0 -.71-.29h-3a1 1 0 0 1 -1-1v-8a1 1 0 0 1 1-1h16a1 1 0 0 1 1 1z"/><path d="m6 8h2v2h-2z"/><path d="m10 8h2v2h-2z"/><path d="m14 8h2v2h-2z"/><path d="m18 8h2v2h-2z"/></g></svg>