<?xml version="1.0"?>
<svg xmlns="http://www.w3.org/2000/svg" viewBox="0 0 64 64" width="512" height="512"><g id="network"><rect x="29" y="45" width="2" height="2"/><rect x="33" y="45" width="2" height="2"/><path d="M42,39V35a1,1,0,0,0-1-1H29a7.008,7.008,0,0,0-7,7v2a3.021,3.021,0,0,0,1.04,2.26A1.984,1.984,0,0,0,22,47v1a2.006,2.006,0,0,0,2,2h1.08A7.007,7.007,0,0,0,28,54.74V57.5l-3.6,2.7A1,1,0,0,0,25,62H39a1,1,0,0,0,.6-1.8L36,57.5V54.74A7.007,7.007,0,0,0,38.92,50H40a2.006,2.006,0,0,0,2-2V47a2.006,2.006,0,0,0-2-2H39v-.28A6.981,6.981,0,0,0,42,39ZM25,48H24V47h1Zm3,12,1.6-1.2A1.014,1.014,0,0,0,30,58V55.71a7.042,7.042,0,0,0,4,0V58a1.014,1.014,0,0,0,.4.8L36,60Zm9-11a5,5,0,0,1-10,0V43.62l3.12-1.56L37,43.78Zm3-2v1H39V47Zm-1.28-4.68a1.072,1.072,0,0,0-.48-.29l-8-2a.978.978,0,0,0-.69.08l-4,2A.977.977,0,0,0,25,43v1a1,1,0,0,1-1-1V41a5,5,0,0,1,5-5H40v3A4.971,4.971,0,0,1,38.72,42.32Z"/><path d="M59,2H43a3.009,3.009,0,0,0-3,3V15a3.009,3.009,0,0,0,3,3h3.79l-.67,2.76a.982.982,0,0,0,.18.86,1,1,0,0,0,.79.38h7.82a1,1,0,0,0,.79-.38.982.982,0,0,0,.18-.86L55.21,18H59a3.009,3.009,0,0,0,3-3V5A3.009,3.009,0,0,0,59,2ZM48.36,20l.49-2h4.3l.49,2ZM60,15a1,1,0,0,1-1,1H43a1,1,0,0,1-1-1V14H60Zm0-3H42V5a1,1,0,0,1,1-1H59a1,1,0,0,1,1,1Z"/><path d="M27.64,16.36a.987.987,0,0,0-.76-.36H26V5a3.009,3.009,0,0,0-3-3H7A3.009,3.009,0,0,0,4,5V16H3.12a1,1,0,0,0-.98,1.17l.46,2.56a.359.359,0,0,0,.02.11A3.021,3.021,0,0,0,5.5,22h19a3.021,3.021,0,0,0,2.88-2.16.359.359,0,0,0,.02-.11l.46-2.56A.986.986,0,0,0,27.64,16.36ZM6,5A1,1,0,0,1,7,4H23a1,1,0,0,1,1,1V16H17a1,1,0,0,0-1,1H14a1,1,0,0,0-1-1H6ZM25.45,19.32a1.014,1.014,0,0,1-.95.68H5.5a1.014,1.014,0,0,1-.95-.68L4.32,18H12a1,1,0,0,0,1,1h4a1,1,0,0,0,1-1h7.68Z"/><path d="M13,40H5a3.009,3.009,0,0,0-3,3V59a3.009,3.009,0,0,0,3,3h8a3.009,3.009,0,0,0,3-3V43A3.009,3.009,0,0,0,13,40Zm-2,2a1,1,0,0,1-1,1H8a1,1,0,0,1-1-1Zm3,17a1,1,0,0,1-1,1H5a1,1,0,0,1-1-1V43a1,1,0,0,1,1-1,3.009,3.009,0,0,0,3,3h2a3.009,3.009,0,0,0,3-3,1,1,0,0,1,1,1Z"/><path d="M59,40H51a3.009,3.009,0,0,0-3,3V59a3.009,3.009,0,0,0,3,3h8a3.009,3.009,0,0,0,3-3V43A3.009,3.009,0,0,0,59,40Zm-2,2a1,1,0,0,1-1,1H54a1,1,0,0,1-1-1Zm3,17a1,1,0,0,1-1,1H51a1,1,0,0,1-1-1V43a1,1,0,0,1,1-1,3.009,3.009,0,0,0,3,3h2a3.009,3.009,0,0,0,3-3,1,1,0,0,1,1,1Z"/><path d="M8,34v4h2V35H20V33H9A1,1,0,0,0,8,34Z"/><path d="M16,24H14v3a1,1,0,0,0,1,1H28v3h2V27a1,1,0,0,0-1-1H16Z"/><path d="M54,38h2V34a1,1,0,0,0-1-1H44v2H54Z"/><path d="M36,28H49a1,1,0,0,0,1-1V24H48v2H35a1,1,0,0,0-1,1v4h2Z"/></g></svg>
