<svg height="512" viewBox="0 0 64 64" width="512" xmlns="http://www.w3.org/2000/svg"><g id="population"><path d="m29 45h2v2h-2z"/><path d="m33 45h2v2h-2z"/><path d="m42 39v-4a1 1 0 0 0 -1-1h-12a7.008 7.008 0 0 0 -7 7v2a3.021 3.021 0 0 0 1.04 2.26 1.984 1.984 0 0 0 -1.04 1.74v1a2.006 2.006 0 0 0 2 2h1.08a7.007 7.007 0 0 0 2.92 4.74v2.76l-3.6 2.7a1 1 0 0 0 .6 1.8h14a1 1 0 0 0 .6-1.8l-3.6-2.7v-2.76a7.007 7.007 0 0 0 2.92-4.74h1.08a2.006 2.006 0 0 0 2-2v-1a2.006 2.006 0 0 0 -2-2h-1v-.28a6.981 6.981 0 0 0 3-5.72zm-17 9h-1v-1h1zm3 12 1.6-1.2a1.014 1.014 0 0 0 .4-.8v-2.29a7.042 7.042 0 0 0 4 0v2.29a1.014 1.014 0 0 0 .4.8l1.6 1.2zm9-11a5 5 0 0 1 -10 0v-5.38l3.12-1.56 6.88 1.72zm3-2v1h-1v-1zm-1.28-4.68a1.072 1.072 0 0 0 -.48-.29l-8-2a.972.972 0 0 0 -.69.08l-4 2a.988.988 0 0 0 -.55.89v1a1 1 0 0 1 -1-1v-2a5 5 0 0 1 5-5h11v3a4.971 4.971 0 0 1 -1.28 3.32z"/><path d="m49 27h2v2h-2z"/><path d="m53 27h2v2h-2z"/><path d="m62 21v-4a1 1 0 0 0 -1-1h-12a7.008 7.008 0 0 0 -7 7v2a3.021 3.021 0 0 0 1.04 2.26 1.984 1.984 0 0 0 -1.04 1.74v1a2.006 2.006 0 0 0 2 2h1.08a7.007 7.007 0 0 0 2.92 4.74v2.76l-3.6 2.7a1 1 0 0 0 .6 1.8h14a1 1 0 0 0 .6-1.8l-3.6-2.7v-2.76a7.007 7.007 0 0 0 2.92-4.74h1.08a2.006 2.006 0 0 0 2-2v-1a2.006 2.006 0 0 0 -2-2h-1v-.28a6.981 6.981 0 0 0 3-5.72zm-17 9h-1v-1h1zm3 12 1.6-1.2a1.014 1.014 0 0 0 .4-.8v-2.29a7.042 7.042 0 0 0 4 0v2.29a1.014 1.014 0 0 0 .4.8l1.6 1.2zm9-11a5 5 0 0 1 -10 0v-5.38l3.12-1.56 6.88 1.72zm3-2v1h-1v-1zm-1.28-4.68a1.072 1.072 0 0 0 -.48-.29l-8-2a.978.978 0 0 0 -.69.08l-4 2a.988.988 0 0 0 -.55.89v1a1 1 0 0 1 -1-1v-2a5 5 0 0 1 5-5h11v3a4.971 4.971 0 0 1 -1.28 3.32z"/><path d="m22 21v-4a1 1 0 0 0 -1-1h-12a7.008 7.008 0 0 0 -7 7v2a3.021 3.021 0 0 0 1.04 2.26 1.984 1.984 0 0 0 -1.04 1.74v1a2.006 2.006 0 0 0 2 2h1.08a7.007 7.007 0 0 0 2.92 4.74v2.76l-3.6 2.7a1 1 0 0 0 .6 1.8h14a1 1 0 0 0 .6-1.8l-3.6-2.7v-2.76a7.007 7.007 0 0 0 2.92-4.74h1.08a2.006 2.006 0 0 0 2-2v-1a2.006 2.006 0 0 0 -2-2h-1v-.28a6.981 6.981 0 0 0 3-5.72zm-17 9h-1v-1h1zm3 12 1.6-1.2a1.014 1.014 0 0 0 .4-.8v-2.29a7.042 7.042 0 0 0 4 0v2.29a1.014 1.014 0 0 0 .4.8l1.6 1.2zm9-11a5 5 0 0 1 -10 0v-5.38l3.12-1.56 6.88 1.72zm3-2v1h-1v-1zm-1.28-4.68a1.072 1.072 0 0 0 -.48-.29l-8-2a.978.978 0 0 0 -.69.08l-4 2a.988.988 0 0 0 -.55.89v1a1 1 0 0 1 -1-1v-2a5 5 0 0 1 5-5h11v3a4.971 4.971 0 0 1 -1.28 3.32z"/><path d="m9 27h2v2h-2z"/><path d="m13 27h2v2h-2z"/><path d="m39.65 8.24-7-6a1 1 0 0 0 -1.3 0l-7 6a1 1 0 0 0 .65 1.76h3v7a1 1 0 0 0 1 1h6a1 1 0 0 0 1-1v-7h3a1 1 0 0 0 .65-1.76zm-4.65-.24a1 1 0 0 0 -1 1v7h-4v-7a1 1 0 0 0 -1-1h-1.3l4.3-3.68 4.3 3.68z"/><path d="m60.65 8.24-7-6a1 1 0 0 0 -1.3 0l-7 6a1 1 0 0 0 .65 1.76h3v3a1 1 0 0 0 1 1h6a1 1 0 0 0 1-1v-3h3a1 1 0 0 0 .65-1.76zm-4.65-.24a1 1 0 0 0 -1 1v3h-4v-3a1 1 0 0 0 -1-1h-1.3l4.3-3.68 4.3 3.68z"/><path d="m18.65 8.24-7-6a1 1 0 0 0 -1.3 0l-7 6a1 1 0 0 0 .65 1.76h3v3a1 1 0 0 0 1 1h6a1 1 0 0 0 1-1v-3h3a1 1 0 0 0 .65-1.76zm-4.65-.24a1 1 0 0 0 -1 1v3h-4v-3a1 1 0 0 0 -1-1h-1.3l4.3-3.68 4.3 3.68z"/><path d="m28 20h8v2h-8z"/><path d="m28 24h8v2h-8z"/><path d="m28 28h8v2h-8z"/></g></svg>