<svg height="512" viewBox="0 0 64 64" width="512" xmlns="http://www.w3.org/2000/svg"><g id="server"><path d="m16 42h4a1 1 0 0 0 1-1v-4a1 1 0 0 0 -1-1h-4a1 1 0 0 0 -1 1v4a1 1 0 0 0 1 1zm1-4h2v2h-2z"/><path d="m24 42h4a1 1 0 0 0 1-1v-4a1 1 0 0 0 -1-1h-4a1 1 0 0 0 -1 1v4a1 1 0 0 0 1 1zm1-4h2v2h-2z"/><path d="m31 36h14v2h-14z"/><path d="m47 36h2v2h-2z"/><path d="m31 40h14v2h-14z"/><path d="m47 40h2v2h-2z"/><path d="m20 20h-4a1 1 0 0 0 -1 1v4a1 1 0 0 0 1 1h4a1 1 0 0 0 1-1v-4a1 1 0 0 0 -1-1zm-1 4h-2v-2h2z"/><path d="m28 20h-4a1 1 0 0 0 -1 1v4a1 1 0 0 0 1 1h4a1 1 0 0 0 1-1v-4a1 1 0 0 0 -1-1zm-1 4h-2v-2h2z"/><path d="m31 24h14v2h-14z"/><path d="m47 24h2v2h-2z"/><path d="m16 58h4a1 1 0 0 0 1-1v-4a1 1 0 0 0 -1-1h-4a1 1 0 0 0 -1 1v4a1 1 0 0 0 1 1zm1-4h2v2h-2z"/><path d="m24 58h4a1 1 0 0 0 1-1v-4a1 1 0 0 0 -1-1h-4a1 1 0 0 0 -1 1v4a1 1 0 0 0 1 1zm1-4h2v2h-2z"/><path d="m31 52h14v2h-14z"/><path d="m47 52h2v2h-2z"/><path d="m31 56h14v2h-14z"/><path d="m47 56h2v2h-2z"/><path d="m60 39a1 1 0 0 0 -1-1h-4v2h3v5a1 1 0 0 0 1 1h3v-2h-2z"/><path d="m60 55a1 1 0 0 0 -1-1h-4v2h3v5a1 1 0 0 0 1 1h3v-2h-2z"/><path d="m4 39v5h-2v2h3a1 1 0 0 0 1-1v-5h3v-2h-4a1 1 0 0 0 -1 1z"/><path d="m4 55v5h-2v2h3a1 1 0 0 0 1-1v-5h3v-2h-4a1 1 0 0 0 -1 1z"/><path d="m62.64 16.36a.987.987 0 0 0 -.76-.36h-.88v-11a3.009 3.009 0 0 0 -3-3h-16a3.009 3.009 0 0 0 -3 3v11h-25a3.009 3.009 0 0 0 -3 3v8a3.009 3.009 0 0 0 3 3h1v2h-1a3.009 3.009 0 0 0 -3 3v8a3.009 3.009 0 0 0 3 3h1v2h-1a3.009 3.009 0 0 0 -3 3v8a3.009 3.009 0 0 0 3 3h36a3.009 3.009 0 0 0 3-3v-8a3.009 3.009 0 0 0 -3-3h-1v-2h1a3.009 3.009 0 0 0 3-3v-8a3.009 3.009 0 0 0 -3-3h-1v-2h1a3.009 3.009 0 0 0 3-3v-5h6.5a3.021 3.021 0 0 0 2.88-2.16.425.425 0 0 0 .02-.11l.46-2.56a.986.986 0 0 0 -.22-.81zm-21.64-11.36a1 1 0 0 1 1-1h16a1 1 0 0 1 1 1v11h-7a1 1 0 0 0 -1 1h-2a1 1 0 0 0 -1-1h-7zm9 45a1 1 0 0 1 1 1v8a1 1 0 0 1 -1 1h-36a1 1 0 0 1 -1-1v-8a1 1 0 0 1 1-1zm-33-2v-2h4v2zm6 0v-2h18v2zm20 0v-2h4v2zm7-14a1 1 0 0 1 1 1v8a1 1 0 0 1 -1 1h-36a1 1 0 0 1 -1-1v-8a1 1 0 0 1 1-1zm-33-2v-2h4v2zm6 0v-2h18v2zm20 0v-2h4v2zm8-5a1 1 0 0 1 -1 1h-36a1 1 0 0 1 -1-1v-8a1 1 0 0 1 1-1h23.29l.31 1.73a.425.425 0 0 0 .02.11 3.021 3.021 0 0 0 2.88 2.16h10.5zm9.45-7.68a1.014 1.014 0 0 1 -.95.68h-19a1.014 1.014 0 0 1 -.95-.68l-.23-1.32h7.68a1 1 0 0 0 1 1h4a1 1 0 0 0 1-1h7.68z"/><path d="m35 9h2v2h-2z"/><path d="m19 11h14v-2h-15a1 1 0 0 0 -1 1v4h2z"/><path d="m49 9h2v2h-2z"/><path d="m53 9h2v2h-2z"/><path d="m45 9h2v2h-2z"/></g></svg>