<?xml version="1.0"?>
<svg xmlns="http://www.w3.org/2000/svg" viewBox="0 0 64 64" width="512" height="512"><g id="shop"><path d="M46,2A16.021,16.021,0,0,0,30,18a15.561,15.561,0,0,0,.53,4H26.16A9.917,9.917,0,0,0,27,18,10,10,0,0,0,7,18a9.917,9.917,0,0,0,.84,4H5a3.009,3.009,0,0,0-3,3V51a3.009,3.009,0,0,0,3,3H20.73l-.51,2H17.25a.992.992,0,0,0-.87.51l-2.25,4a.975.975,0,0,0,.01.99A.987.987,0,0,0,15,62H37a.987.987,0,0,0,.86-.5.975.975,0,0,0,.01-.99l-2.25-4a.992.992,0,0,0-.87-.51H31.78l-.51-2H47a3.009,3.009,0,0,0,3-3V33.47A15.988,15.988,0,0,0,46,2ZM59.95,17H54.97a25.732,25.732,0,0,0-1.16-7.05,16.344,16.344,0,0,0,2.31-1.59A13.924,13.924,0,0,1,59.95,17ZM54.63,7a13.562,13.562,0,0,1-1.54,1.06,14.094,14.094,0,0,0-1.75-2.99A13.869,13.869,0,0,1,54.63,7ZM47,4.17c1.69.51,3.2,2.27,4.29,4.79A13.9,13.9,0,0,1,47,9.95Zm0,7.78a15.821,15.821,0,0,0,4.97-1.11,24.274,24.274,0,0,1,1,6.16H47ZM47,19h5.97a24.274,24.274,0,0,1-1,6.16A15.821,15.821,0,0,0,47,24.05ZM45,4.17V9.95a13.9,13.9,0,0,1-4.29-.99C41.8,6.44,43.31,4.68,45,4.17ZM40.03,25.16a24.274,24.274,0,0,1-1-6.16H45v5.05A15.821,15.821,0,0,0,40.03,25.16Zm4.97.89v5.78c-1.69-.51-3.2-2.27-4.29-4.79A13.9,13.9,0,0,1,45,26.05Zm-4.34,4.88A13.869,13.869,0,0,1,37.37,29a13.562,13.562,0,0,1,1.54-1.06A14.094,14.094,0,0,0,40.66,30.93ZM39.03,17a24.274,24.274,0,0,1,1-6.16A15.821,15.821,0,0,0,45,11.95V17ZM40.66,5.07a14.094,14.094,0,0,0-1.75,2.99A13.562,13.562,0,0,1,37.37,7,13.869,13.869,0,0,1,40.66,5.07ZM35.88,8.36a16.344,16.344,0,0,0,2.31,1.59A25.732,25.732,0,0,0,37.03,17H32.05A13.924,13.924,0,0,1,35.88,8.36ZM37.03,19a25.732,25.732,0,0,0,1.16,7.05,16.344,16.344,0,0,0-2.31,1.59A13.924,13.924,0,0,1,32.05,19ZM17,10a8,8,0,1,1-8,8A8.011,8.011,0,0,1,17,10Zm2,28H15a1,1,0,0,0-1,1v5H11V34H23V44H20V39A1,1,0,0,0,19,38Zm-1,2v4H16V40ZM8.87,32l2.67-4H22.46l2.67,4Zm25.3,26,1.12,2H16.71l1.12-2ZM22.29,56l.51-2h6.4l.51,2ZM48,51a1,1,0,0,1-1,1H5a1,1,0,0,1-1-1V50H48Zm0-3H4V25a1,1,0,0,1,1-1H9.02a10.024,10.024,0,0,0,2.01,2H11a1,1,0,0,0-.83.45l-4,6a.963.963,0,0,0-.05,1.02A.984.984,0,0,0,7,34H9V45a1,1,0,0,0,1,1H24a1,1,0,0,0,1-1V34h2a.984.984,0,0,0,.88-.53.963.963,0,0,0-.05-1.02l-4-6A1,1,0,0,0,23,26h-.03a10.024,10.024,0,0,0,2.01-2h6.2A16.009,16.009,0,0,0,46,34a16.515,16.515,0,0,0,2-.14ZM47,31.83V26.05a13.9,13.9,0,0,1,4.29.99C50.2,29.56,48.69,31.32,47,31.83Zm4.34-.9a14.094,14.094,0,0,0,1.75-2.99A13.562,13.562,0,0,1,54.63,29,13.869,13.869,0,0,1,51.34,30.93Zm4.78-3.29a16.344,16.344,0,0,0-2.31-1.59A25.732,25.732,0,0,0,54.97,19h4.98A13.924,13.924,0,0,1,56.12,27.64Z"/><rect x="27" y="40" width="2" height="2"/><path d="M40.586,40H31v2H41a1,1,0,0,0,.707-.293l5-5-1.414-1.414Z"/><path d="M16,24h2V22h1a1,1,0,0,0,1-1V18a1,1,0,0,0-1-1H16V16h4V14H18V12H16v2H15a1,1,0,0,0-1,1v3a1,1,0,0,0,1,1h3v1H14v2h2Z"/></g></svg>
