<?xml version="1.0"?>
<svg xmlns="http://www.w3.org/2000/svg" viewBox="0 0 64 64" width="512" height="512"><g id="shopping_online" data-name="shopping online"><path d="M32,21a16,16,0,0,0-7,30.38V59a3.009,3.009,0,0,0,3,3h8a3.009,3.009,0,0,0,3-3V51.38A16,16,0,0,0,32,21ZM45.95,36H40.97a25.732,25.732,0,0,0-1.16-7.05,16.344,16.344,0,0,0,2.31-1.59A13.924,13.924,0,0,1,45.95,36ZM33,23.17c1.69.51,3.2,2.27,4.29,4.79a13.9,13.9,0,0,1-4.29.99Zm0,7.78a15.821,15.821,0,0,0,4.97-1.11,24.274,24.274,0,0,1,1,6.16H33ZM34,42a1,1,0,0,1-1,1H31a1,1,0,0,1-1-1Zm-3-6H25.03a24.274,24.274,0,0,1,1-6.16A15.821,15.821,0,0,0,31,30.95Zm0-12.83v5.78a13.9,13.9,0,0,1-4.29-.99C27.8,25.44,29.31,23.68,31,23.17Zm-4.34.9a14.094,14.094,0,0,0-1.75,2.99A13.562,13.562,0,0,1,23.37,26,13.869,13.869,0,0,1,26.66,24.07Zm-4.78,3.29a16.344,16.344,0,0,0,2.31,1.59A25.732,25.732,0,0,0,23.03,36H18.05A13.924,13.924,0,0,1,21.88,27.36ZM25,49.11A13.985,13.985,0,0,1,18.04,38h4.98A24.471,24.471,0,0,0,25,47.09Zm.4-7.58A26.669,26.669,0,0,1,25.02,38H31v2H28A2.978,2.978,0,0,0,25.4,41.53ZM37,59a1,1,0,0,1-1,1H28a1,1,0,0,1-1-1V43a1,1,0,0,1,1-1,3.009,3.009,0,0,0,3,3h2a3.009,3.009,0,0,0,3-3,1,1,0,0,1,1,1Zm1.6-17.47A2.978,2.978,0,0,0,36,40H33V38h5.98A26.669,26.669,0,0,1,38.6,41.53ZM37.34,24.07A13.869,13.869,0,0,1,40.63,26a13.562,13.562,0,0,1-1.54,1.06A14.094,14.094,0,0,0,37.34,24.07ZM39,49.11V47.09A24.471,24.471,0,0,0,40.98,38h4.98A13.985,13.985,0,0,1,39,49.11Z"/><path d="M11,49a4,4,0,1,0,4,4A4,4,0,0,0,11,49Zm0,6a2,2,0,1,1,2-2A2,2,0,0,1,11,55Z"/><path d="M19.24,50.03l-.67-.17.36-.59a1,1,0,0,0-.15-1.22l-2.83-2.83a1,1,0,0,0-1.22-.15l-.59.36-.17-.67A1,1,0,0,0,13,44H9a1,1,0,0,0-.97.76l-.17.67-.59-.36a1,1,0,0,0-1.22.15L3.22,48.05a1,1,0,0,0-.15,1.22l.36.59-.67.17A1,1,0,0,0,2,51v4a1,1,0,0,0,.76.97l.67.17-.36.59a1,1,0,0,0,.15,1.22l2.83,2.83a1,1,0,0,0,1.22.15l.59-.36.17.67A1,1,0,0,0,9,62h4a1,1,0,0,0,.97-.76l.17-.67.59.36a1,1,0,0,0,1.22-.15l2.83-2.83a1,1,0,0,0,.15-1.22l-.36-.59.67-.17A1,1,0,0,0,20,55V51A1,1,0,0,0,19.24,50.03ZM18,54.22l-1.22.3a1.007,1.007,0,0,0-.68.59,1.019,1.019,0,0,0,.06.9l.65,1.08-1.72,1.72-1.08-.65a1.019,1.019,0,0,0-.9-.06,1.007,1.007,0,0,0-.59.68L12.22,60H9.78l-.3-1.22a1.007,1.007,0,0,0-.59-.68,1.019,1.019,0,0,0-.9.06l-1.08.65L5.19,57.09l.65-1.08a1.019,1.019,0,0,0,.06-.9,1.007,1.007,0,0,0-.68-.59L4,54.22V51.78l1.22-.3a1.007,1.007,0,0,0,.68-.59,1.019,1.019,0,0,0-.06-.9l-.65-1.08,1.72-1.72,1.08.64a.989.989,0,0,0,.9.07,1.007,1.007,0,0,0,.59-.68L9.78,46h2.44l.3,1.22a1.007,1.007,0,0,0,.59.68.989.989,0,0,0,.9-.07l1.08-.64,1.72,1.72-.65,1.08a1.019,1.019,0,0,0-.06.9,1.007,1.007,0,0,0,.68.59l1.22.3Z"/><path d="M52,22A10,10,0,1,0,42,12,10.011,10.011,0,0,0,52,22ZM52,4a8,8,0,1,1-8,8A8.009,8.009,0,0,1,52,4Z"/><path d="M51,18h2V16h1a1,1,0,0,0,1-1V12a1,1,0,0,0-1-1H51V10h4V8H53V6H51V8H50a1,1,0,0,0-1,1v3a1,1,0,0,0,1,1h3v1H49v2h2Z"/><path d="M12,22A10,10,0,1,0,2,12,10.011,10.011,0,0,0,12,22ZM12,4a8,8,0,1,1-8,8A8.009,8.009,0,0,1,12,4Z"/><path d="M11,18h2V16h1a1,1,0,0,0,1-1V12a1,1,0,0,0-1-1H11V10h4V8H13V6H11V8H10A1,1,0,0,0,9,9v3a1,1,0,0,0,1,1h3v1H9v2h2Z"/><path d="M10,35v7h2V36h2V34H11A1,1,0,0,0,10,35Z"/><path d="M53,49a4,4,0,1,0,4,4A4,4,0,0,0,53,49Zm0,6a2,2,0,1,1,2-2A2,2,0,0,1,53,55Z"/><path d="M61.24,50.03l-.67-.17.36-.59a1.012,1.012,0,0,0-.15-1.22l-2.83-2.83a1.014,1.014,0,0,0-1.22-.15l-.59.36-.17-.67A1,1,0,0,0,55,44H51a1,1,0,0,0-.97.76l-.17.67-.59-.36a1.012,1.012,0,0,0-1.22.15l-2.83,2.83a1,1,0,0,0-.15,1.22l.36.59-.67.17A1,1,0,0,0,44,51v4a1,1,0,0,0,.76.97l.67.17-.36.59a1,1,0,0,0,.15,1.22l2.83,2.83a1,1,0,0,0,1.22.15l.59-.36.17.67A1,1,0,0,0,51,62h4a1,1,0,0,0,.97-.76l.17-.67.59.36a1,1,0,0,0,1.22-.15l2.83-2.83a1.012,1.012,0,0,0,.15-1.22l-.36-.59.67-.17A1,1,0,0,0,62,55V51A1,1,0,0,0,61.24,50.03ZM60,54.22l-1.22.3a1.007,1.007,0,0,0-.68.59,1.019,1.019,0,0,0,.06.9l.65,1.08-1.72,1.72-1.08-.65a1.019,1.019,0,0,0-.9-.06,1.007,1.007,0,0,0-.59.68L54.22,60H51.78l-.3-1.22a1.007,1.007,0,0,0-.59-.68,1.019,1.019,0,0,0-.9.06l-1.08.65-1.72-1.72.65-1.08a1.019,1.019,0,0,0,.06-.9,1.007,1.007,0,0,0-.68-.59L46,54.22V51.78l1.22-.3a1.007,1.007,0,0,0,.68-.59,1.019,1.019,0,0,0-.06-.9l-.65-1.08,1.72-1.72,1.08.65a1.019,1.019,0,0,0,.9.06,1.007,1.007,0,0,0,.59-.68l.3-1.22h2.44l.3,1.22a1.007,1.007,0,0,0,.59.68,1.019,1.019,0,0,0,.9-.06l1.08-.65,1.72,1.72-.65,1.08a1.019,1.019,0,0,0-.06.9,1.007,1.007,0,0,0,.68.59l1.22.3Z"/><path d="M54,42V35a1,1,0,0,0-1-1H50v2h2v6Z"/><path d="M28,19h2V12a1,1,0,0,0-1-1H24v2h4Z"/><path d="M36,13h4V11H35a1,1,0,0,0-1,1v7h2Z"/></g></svg>
