<svg height="512" viewBox="0 0 64 64" width="512" xmlns="http://www.w3.org/2000/svg"><g id="store"><path d="m61.57 22.18-29-20a.993.993 0 0 0 -1.14 0l-29 20a1.01 1.01 0 0 0 -.43.82v38a1 1 0 0 0 1 1h58a1 1 0 0 0 1-1v-38a1.01 1.01 0 0 0 -.43-.82zm-55.57 37.82h-2v-36h2zm50 0h-48v-32h48zm0-34h-48v-2h48zm-49.79-4 25.79-17.79 25.79 17.79zm53.79 38h-2v-36h2z"/><path d="m32 8a4 4 0 1 0 4 4 4 4 0 0 0 -4-4zm0 6a2 2 0 1 1 2-2 2 2 0 0 1 -2 2z"/><path d="m53.64 39.25.01-.01-7-6a1.021 1.021 0 0 0 -.65-.24h-28a1.021 1.021 0 0 0 -.65.24l-7 6 .01.01a.969.969 0 0 0 -.36.75v17a1 1 0 0 0 1 1h42a1 1 0 0 0 1-1v-17a.969.969 0 0 0 -.36-.75zm-3.34-.25h-13.43l8.95-3.84zm-.12 2-7.68 6.21-7.68-6.21zm-17.18-6h8.13l-8.13 3.48zm-14.82.16 8.95 3.84h-13.43zm11 5.84-7.68 6.21-7.68-6.21zm-17.18 1.1 7.91 6.4-7.91 6.4zm1.82 13.9 7.68-6.21 7.68 6.21zm17.18-1.1-7.91-6.4 7.91-6.4zm0-16.42-8.13-3.48h8.13zm2 3.62 7.91 6.4-7.91 6.4zm1.82 13.9 7.68-6.21 7.68 6.21zm17.18-1.1-7.91-6.4 7.91-6.4z"/><path d="m28 18h8v2h-8z"/><path d="m38 18h2v2h-2z"/><path d="m24 18h2v2h-2z"/></g></svg>