<?xml version="1.0"?>
<svg xmlns="http://www.w3.org/2000/svg" viewBox="0 0 64 64" width="512" height="512"><g id="support"><path d="M24.25,29.03l-2.71-.9L21,27.59V24.74A7.007,7.007,0,0,0,23.92,20H25a2.006,2.006,0,0,0,2-2V17a2.006,2.006,0,0,0-2-2H24v-.28A6.981,6.981,0,0,0,27,9V5a1,1,0,0,0-1-1H14a7.008,7.008,0,0,0-7,7v2a3.021,3.021,0,0,0,1.04,2.26A1.984,1.984,0,0,0,7,17v1a2.006,2.006,0,0,0,2,2h1.08A7.007,7.007,0,0,0,13,24.74v2.85l-.54.54-2.71.9A9,9,0,0,0,2,38V61a1,1,0,0,0,1,1H31a1,1,0,0,0,1-1V38A9,9,0,0,0,24.25,29.03ZM25,17v1H24V17ZM10,18H9V17h1Zm.55-5.89A.988.988,0,0,0,10,13v1a1,1,0,0,1-1-1V11a5,5,0,0,1,5-5H25V9a4.971,4.971,0,0,1-1.28,3.32,1.072,1.072,0,0,0-.48-.29l-8-2a.978.978,0,0,0-.69.08ZM12,19V13.62l3.12-1.56L22,13.78V19a5,5,0,0,1-10,0Zm7.29,9.71.3.29L17,31.59,14.41,29l.3-.29A1.033,1.033,0,0,0,15,28V25.71a7.042,7.042,0,0,0,4,0V28A1.033,1.033,0,0,0,19.29,28.71Zm-6.56,1.43,3.56,3.57a1.008,1.008,0,0,0,1.42,0l3.56-3.57,1.13.38L18.49,36H15.51L11.6,30.52ZM18.82,42l1.11,6.66L17,51.59l-2.93-2.93L15.18,42Zm-3.31-2,.34-2h2.3l.34,2ZM8,60H4V50H8Zm22,0H26V50h4Zm0-12H25a1,1,0,0,0-1,1V60H10V49a1,1,0,0,0-1-1H4V38a7.015,7.015,0,0,1,5.55-6.91l4.4,6.15-1.94,11.6a1.011,1.011,0,0,0,.28.87l4,4a1.014,1.014,0,0,0,1.42,0l4-4a1.011,1.011,0,0,0,.28-.87l-1.94-11.6,4.4-6.15A7.015,7.015,0,0,1,30,38Z"/><path d="M48.219,6.348a7.082,7.082,0,0,0-6.581,1.177A6.966,6.966,0,0,0,39,13a1,1,0,0,0,1,1h4a1,1,0,0,0,1-1,1,1,0,0,1,.376-.782,1.022,1.022,0,0,1,.92-.181.961.961,0,0,1,.679.725,1.013,1.013,0,0,1-.463,1.1A7.073,7.073,0,0,0,43,20a3,3,0,1,0,6-.077,1.1,1.1,0,0,1,.592-.913A7.076,7.076,0,0,0,52.553,10.5,6.861,6.861,0,0,0,48.219,6.348Zm.345,10.945A3.11,3.11,0,0,0,47,20a1,1,0,0,1-1,1,1.02,1.02,0,0,1-1-1.077,5.058,5.058,0,0,1,2.537-4.346,3,3,0,0,0,1.4-3.211A2.945,2.945,0,0,0,46.781,10.1a3.254,3.254,0,0,0-.789-.1,3.011,3.011,0,0,0-2.822,2H41.1a4.97,4.97,0,0,1,1.785-2.911,5.078,5.078,0,0,1,4.727-.835,4.85,4.85,0,0,1,3.064,2.932A5.071,5.071,0,0,1,48.564,17.293Z"/><path d="M46,24a3,3,0,1,0,3,3A3,3,0,0,0,46,24Zm0,4a1,1,0,1,1,1-1A1,1,0,0,1,46,28Z"/><path d="M46,2A16.021,16.021,0,0,0,30,18a15.81,15.81,0,0,0,2.85,9.08l-.83,3.7a1.008,1.008,0,0,0,1.33,1.16l3.05-1.15A16,16,0,1,0,46,2Zm0,30a13.838,13.838,0,0,1-8.8-3.12,1.026,1.026,0,0,0-.63-.22,1.12,1.12,0,0,0-.35.06l-1.84.7.52-2.34a.982.982,0,0,0-.18-.81A13.868,13.868,0,0,1,32,18,14,14,0,1,1,46,32Z"/><rect x="14" y="15" width="2" height="2"/><rect x="18" y="15" width="2" height="2"/></g></svg>
