<svg height="512" viewBox="0 0 64 64" width="512" xmlns="http://www.w3.org/2000/svg"><g id="tag"><path d="m51.843 33.631-1.053 1.7a10.93 10.93 0 0 1 5.21 9.354h2a12.92 12.92 0 0 0 -6.157-11.054z"/><path d="m55.83 31.62-13.83-8.19v-11.02l2.88-2.87a3 3 0 0 1 4.24 0l6.17 6.17 1.42-1.42-6.17-6.17a5.016 5.016 0 0 0 -7.08 0l-1.46 1.47v-4.59a3.009 3.009 0 0 0 -3-3h-18a3.009 3.009 0 0 0 -3 3v4.59l-1.46-1.47a5.022 5.022 0 0 0 -7.08 0l-6.17 6.17 1.42 1.42 6.17-6.17a3.056 3.056 0 0 1 4.24 0l2.88 2.87v26.59a3.009 3.009 0 0 0 3 3h4.03a4.332 4.332 0 0 0 .43.53l7.54 8.84v1.63a9.014 9.014 0 0 0 9 9h18a2.006 2.006 0 0 0 2-2v-17.32a12.931 12.931 0 0 0 -6.17-11.06zm-35.83-17.7a5 5 0 0 0 5.54-1.04l2.07-2.08a3 3 0 1 0 -.56-2.26l-2.93 2.92a3.056 3.056 0 0 1 -4.12.1v-6.56a1 1 0 0 1 1-1h18a1 1 0 0 1 1 1v11h-20zm9-4.92a1 1 0 1 1 1 1 1 1 0 0 1 -1-1zm-4.87 31h-3.13a1 1 0 0 1 -1-1v-21h20v21a1 1 0 0 1 -1 1h-1.81l-4.6-4.49a5.022 5.022 0 0 0 -7.08 0 5.045 5.045 0 0 0 -1.38 4.49zm35.87 20h-18a7.008 7.008 0 0 1 -7-7v-2a.969.969 0 0 0 -.24-.65l-7.83-9.18a3 3 0 0 1 0-4.24 3.068 3.068 0 0 1 4.25.01l13.12 12.78 1.4-1.44-6.48-6.3a3 3 0 0 0 2.78-2.98v-13.25l12.79 7.58a10.941 10.941 0 0 1 5.21 9.35z"/><path d="m22 20h2v2h-2z"/><path d="m26 20h12v2h-12z"/><path d="m22 24h10v2h-10z"/><path d="m34 24h4v2h-4z"/><path d="m22 28h4v2h-4z"/><path d="m28 28h10v2h-10z"/></g></svg>