<svg height="512" viewBox="0 0 64 64" width="512" xmlns="http://www.w3.org/2000/svg"><g id="target"><path d="m29 32h2v2h-2z"/><path d="m33 32h2v2h-2z"/><path d="m61 32h-4a.99.99 0 0 0 -.86.49l-3 5a.992.992 0 0 0 -.03.96l1.89 3.79v4.76h-.13a4 4 0 0 0 -7.74 0h-7.8l-3.33-2.5v-2.76a7.007 7.007 0 0 0 2.92-4.74h1.08a2.006 2.006 0 0 0 2-2v-1a2 2 0 0 0 -1.62-1.96l1.33-1.33a1.033 1.033 0 0 0 .29-.71v-1a7.008 7.008 0 0 0 -7-7h-6a7.008 7.008 0 0 0 -7 7v1a1.033 1.033 0 0 0 .29.71l1.33 1.33a2 2 0 0 0 -1.62 1.96v1a2.006 2.006 0 0 0 2 2h1.08a7.007 7.007 0 0 0 2.92 4.74v2.76l-3.33 2.5h-7.8a4 4 0 0 0 -7.74 0h-.13v-4.76l1.89-3.79a.992.992 0 0 0 -.03-.96l-3-5a.99.99 0 0 0 -.86-.49h-4a1 1 0 0 0 -1 1v19a1.007 1.007 0 0 0 .65.94l15.35 5.75v2.31a1 1 0 0 0 1 1h26a1 1 0 0 0 1-1v-2.31l15.35-5.75a1.007 1.007 0 0 0 .65-.94v-19a1 1 0 0 0 -1-1zm-57 2h2.43l2.43 4.04-1.48 2.96h-3.38zm14 22.56-14-5.25v-8.31h3v5a1 1 0 0 0 1 1h2a1 1 0 0 0 1-1 2 2 0 0 1 4 0 1 1 0 0 0 1 1h2zm22-21.56h-1v-1h1zm-15 0h-1v-1h1zm.55-5.89a.977.977 0 0 0 -.55.89v.59l-1-1v-.59a5 5 0 0 1 5-5h6a5 5 0 0 1 5 5v.59l-1 1v-.59a1 1 0 0 0 -.76-.97l-8-2a.978.978 0 0 0 -.69.08zm1.45 6.89v-5.38l3.12-1.56 6.88 1.72v5.22a5 5 0 0 1 -10 0zm2.6 9.8a1.014 1.014 0 0 0 .4-.8v-2.29a7.042 7.042 0 0 0 4 0v2.29a1.014 1.014 0 0 0 .4.8l2.78 2.09-5.18 2.96-5.18-2.96zm1.9 7.07a1.044 1.044 0 0 0 1 0l4.96-2.84-1.24 4.97h-8.44l-1.24-4.97zm12.5 7.13h-24v-11h4.22l1.81 7.24a1 1 0 0 0 .97.76h10a1 1 0 0 0 .97-.76l1.81-7.24h4.22zm16-8.69-14 5.25v-7.56h2a1 1 0 0 0 1-1 2 2 0 0 1 4 0 1 1 0 0 0 1 1h2a1 1 0 0 0 1-1v-5h3zm0-10.31h-3.38l-1.48-2.96 2.43-4.04h2.43z"/><path d="m31 9.858v5.142h2v-5.142a4 4 0 1 0 -2 0zm1-5.858a2 2 0 1 1 -2 2 2 2 0 0 1 2-2z"/><path d="m43.856 10.511h2v1.81h-2z" transform="matrix(.388 -.921 .921 .388 16.912 48.316)"/><path d="m37.184 7.698h2v1.811h-2z" transform="matrix(.389 -.921 .921 .389 15.419 40.443)"/><path d="m40.52 9.105h2v1.81h-2z" transform="matrix(.388 -.921 .921 .388 16.168 44.381)"/><path d="m8.105 22.48h1.81v2h-1.81z" transform="matrix(.389 -.921 .921 .389 -16.126 22.655)"/><path d="m6.698 25.816h1.811v2h-1.811z" transform="matrix(.389 -.921 .921 .389 -20.06 23.399)"/><path d="m9.511 19.144h1.81v2h-1.81z" transform="matrix(.389 -.921 .921 .389 -12.192 21.912)"/><path d="m55.396 25.911h2v1.81h-2z" transform="matrix(.921 -.389 .389 .921 -5.989 24.028)"/><path d="m53.99 22.575h2v1.81h-2z" transform="matrix(.921 -.389 .389 .921 -4.803 23.219)"/><path d="m52.583 19.238h2v1.811h-2z" transform="matrix(.921 -.389 .389 .921 -3.617 22.404)"/><path d="m18.238 10.416h1.81v2h-1.81z" transform="matrix(.921 -.389 .389 .921 -2.932 8.338)"/><path d="m21.575 9.01h1.81v2h-1.81z" transform="matrix(.921 -.389 .389 .921 -2.123 9.524)"/><path d="m24.911 7.604h1.81v2h-1.81z" transform="matrix(.921 -.389 .389 .921 -1.314 10.71)"/><path d="m44.021 19.565 1.414 1.414 3.546-3.546a3.947 3.947 0 0 0 2.019.567 4 4 0 1 0 -4-4 3.947 3.947 0 0 0 .567 2.019zm6.979-7.565a2 2 0 1 1 -2 2 2 2 0 0 1 2-2z"/><path d="m13 18a3.947 3.947 0 0 0 2.019-.567l3.546 3.546 1.414-1.414-3.546-3.546a3.947 3.947 0 0 0 .567-2.019 4 4 0 1 0 -4 4zm0-6a2 2 0 1 1 -2 2 2 2 0 0 1 2-2z"/></g></svg>